<mxfile host="65bd71144e">
    <diagram id="FyRvqqAsthDaEE0xm74f" name="Page-1">
        <mxGraphModel dx="820" dy="449" grid="1" gridSize="10" guides="1" tooltips="1" connect="1" arrows="1" fold="1" page="1" pageScale="1" pageWidth="827" pageHeight="1169" background="#999999" math="0" shadow="0">
            <root>
                <mxCell id="0"/>
                <mxCell id="1" parent="0"/>
                <mxCell id="38" value="Valuta" style="shape=table;startSize=30;container=1;collapsible=0;childLayout=tableLayout;swimlaneFillColor=default;fontStyle=1" parent="1" vertex="1">
                    <mxGeometry x="300" y="90" width="250" height="240" as="geometry"/>
                </mxCell>
                <mxCell id="39" value="" style="shape=partialRectangle;collapsible=0;dropTarget=0;pointerEvents=0;fillColor=none;top=0;left=0;bottom=0;right=0;points=[[0,0.5],[1,0.5]];portConstraint=eastwest;" parent="38" vertex="1">
                    <mxGeometry y="30" width="250" height="88" as="geometry"/>
                </mxCell>
                <mxCell id="40" value="-valutaKurs&lt;br&gt;-valutaNavn" style="shape=partialRectangle;html=1;whiteSpace=wrap;connectable=0;overflow=hidden;fillColor=none;top=0;left=0;bottom=0;right=0;pointerEvents=1;align=left;" parent="39" vertex="1">
                    <mxGeometry width="250" height="88" as="geometry">
                        <mxRectangle width="250" height="88" as="alternateBounds"/>
                    </mxGeometry>
                </mxCell>
                <mxCell id="41" value="" style="shape=partialRectangle;collapsible=0;dropTarget=0;pointerEvents=0;fillColor=none;top=0;left=0;bottom=0;right=0;points=[[0,0.5],[1,0.5]];portConstraint=eastwest;" parent="38" vertex="1">
                    <mxGeometry y="118" width="250" height="122" as="geometry"/>
                </mxCell>
                <mxCell id="42" value="+getValutaKurs()&lt;br&gt;+doCalculationFrom()&lt;br&gt;+doCalculationTo()" style="shape=partialRectangle;html=1;whiteSpace=wrap;connectable=0;overflow=hidden;fillColor=none;top=0;left=0;bottom=0;right=0;pointerEvents=1;align=left;" parent="41" vertex="1">
                    <mxGeometry width="250" height="122" as="geometry">
                        <mxRectangle width="250" height="122" as="alternateBounds"/>
                    </mxGeometry>
                </mxCell>
            </root>
        </mxGraphModel>
    </diagram>
</mxfile>